<svg xmlns="http://www.w3.org/2000/svg" width="14.992" height="17.133" viewBox="0 0 14.992 17.133">
  <path id="Icon_metro-attachment" data-name="Icon metro-attachment" d="M14.14,7.4,13.053,6.314,7.618,11.747a2.305,2.305,0,1,0,3.261,3.26L17.4,8.487a3.842,3.842,0,0,0-5.434-5.433L5.119,9.9,5.1,9.914a5.359,5.359,0,0,0,7.579,7.578l.014-.015h0L17.372,12.8l-1.087-1.086-4.674,4.673-.014.014A3.822,3.822,0,0,1,6.191,11l.015-.014h0L13.053,4.14A2.305,2.305,0,1,1,16.314,7.4l-6.522,6.52a.768.768,0,0,1-1.087-1.086L14.14,7.4Z" transform="translate(-3.535 -1.928)"/>
</svg>
