<svg xmlns="http://www.w3.org/2000/svg" width="22.49" height="15.774" viewBox="0 0 22.49 15.774">
  <g id="email_4_" data-name="email (4)" transform="translate(0.5 -79.5)">
    <g id="Group_19" data-name="Group 19" transform="translate(0 80)">
      <g id="Group_18" data-name="Group 18" transform="translate(0 0)">
        <path id="Path_11" data-name="Path 11" d="M20.147,80H1.343A1.344,1.344,0,0,0,0,81.343v.764l10.745,4.55L21.49,82.106v-.763A1.344,1.344,0,0,0,20.147,80Z" transform="translate(0 -80)" fill="#9d9d9d" stroke="#707070" stroke-width="1"/>
      </g>
    </g>
    <g id="Group_21" data-name="Group 21" transform="translate(0 83.566)">
      <g id="Group_20" data-name="Group 20" transform="translate(0 0)">
        <path id="Path_12" data-name="Path 12" d="M11.007,169.4a.665.665,0,0,1-.524,0L0,164.96v9.865a1.344,1.344,0,0,0,1.343,1.343h18.8a1.344,1.344,0,0,0,1.343-1.343V164.96Z" transform="translate(0 -164.96)" fill="#9d9d9d" stroke="#707070" stroke-width="1"/>
      </g>
    </g>
  </g>
</svg>
