<svg xmlns="http://www.w3.org/2000/svg" width="25.861" height="17.241" viewBox="0 0 25.861 17.241">
  <path id="Icon_awesome-eye" data-name="Icon awesome-eye" d="M25.7,12.465A14.4,14.4,0,0,0,12.93,4.5,14.4,14.4,0,0,0,.156,12.465a1.452,1.452,0,0,0,0,1.311A14.4,14.4,0,0,0,12.93,21.741,14.4,14.4,0,0,0,25.7,13.775,1.452,1.452,0,0,0,25.7,12.465ZM12.93,19.586A6.465,6.465,0,1,1,19.4,13.12,6.465,6.465,0,0,1,12.93,19.586Zm0-10.775a4.279,4.279,0,0,0-1.136.17,2.148,2.148,0,0,1-3,3A4.3,4.3,0,1,0,12.93,8.81Z" transform="translate(0 -4.5)" fill="#3f51b5"/>
</svg>
