<svg xmlns="http://www.w3.org/2000/svg" width="27" height="36" viewBox="0 0 27 36">
  <path id="Icon_awesome-file-image" data-name="Icon awesome-file-image" d="M27,8.574V9H18V0h.426a1.687,1.687,0,0,1,1.193.494l6.886,6.886A1.688,1.688,0,0,1,27,8.574ZM17.438,11.25A1.692,1.692,0,0,1,15.75,9.563V0H1.688A1.687,1.687,0,0,0,0,1.688V34.313A1.687,1.687,0,0,0,1.688,36H25.313A1.687,1.687,0,0,0,27,34.313V11.25ZM7.913,12.375A3.375,3.375,0,1,1,4.538,15.75,3.375,3.375,0,0,1,7.913,12.375ZM22.538,29.25h-18l.034-3.409,2.778-2.778A.8.8,0,0,1,8.51,23.1l2.778,2.778L18.567,18.6a.844.844,0,0,1,1.193,0l2.778,2.778Z" fill="#3f51b5"/>
</svg>
