<svg xmlns="http://www.w3.org/2000/svg" width="21.384" height="15.035" viewBox="0 0 21.384 15.035">
  <g id="menu_3_" data-name="menu (3)" transform="translate(0 -76)">
    <g id="Group_25" data-name="Group 25" transform="translate(0 82.577)">
      <g id="Group_24" data-name="Group 24">
        <path id="Path_17" data-name="Path 17" d="M20.549,236H.835a.947.947,0,0,0,0,1.88H20.549a.947.947,0,0,0,0-1.88Z" transform="translate(0 -236)" fill="#3a2c70"/>
      </g>
    </g>
    <g id="Group_27" data-name="Group 27" transform="translate(0 76)">
      <g id="Group_26" data-name="Group 26">
        <path id="Path_18" data-name="Path 18" d="M20.549,76H.835a.947.947,0,0,0,0,1.88H20.549a.947.947,0,0,0,0-1.88Z" transform="translate(0 -76)" fill="#3a2c70"/>
      </g>
    </g>
    <g id="Group_29" data-name="Group 29" transform="translate(0 89.154)">
      <g id="Group_28" data-name="Group 28">
        <path id="Path_19" data-name="Path 19" d="M20.549,396H.835a.947.947,0,0,0,0,1.88H20.549a.947.947,0,0,0,0-1.88Z" transform="translate(0 -396)" fill="#3a2c70"/>
      </g>
    </g>
  </g>
</svg>
