<svg xmlns="http://www.w3.org/2000/svg" width="20" height="25" viewBox="0 0 20 25">
  <g id="notes_3_" data-name="notes (3)" transform="translate(-1.5 0.5)">
    <path id="Path_5091" data-name="Path 5091" d="M6.75,5.5a1,1,0,0,1-1-1V1a1,1,0,0,1,2,0V4.5A1,1,0,0,1,6.75,5.5Z" fill="#9d9d9d" stroke="#707070" stroke-width="1"/>
    <path id="Path_5092" data-name="Path 5092" d="M11.5,5.5a1,1,0,0,1-1-1V1a1,1,0,0,1,2,0V4.5A1,1,0,0,1,11.5,5.5Z" fill="#9d9d9d" stroke="#707070" stroke-width="1"/>
    <path id="Path_5093" data-name="Path 5093" d="M16.25,5.5a1,1,0,0,1-1-1V1a1,1,0,0,1,2,0V4.5A1,1,0,0,1,16.25,5.5Z" fill="#9d9d9d" stroke="#707070" stroke-width="1"/>
    <path id="Path_5094" data-name="Path 5094" d="M18.25,2.25H4.75A2.752,2.752,0,0,0,2,5V21.25A2.752,2.752,0,0,0,4.75,24h13.5A2.752,2.752,0,0,0,21,21.25V5A2.752,2.752,0,0,0,18.25,2.25ZM7,8h5a1,1,0,0,1,0,2H7A1,1,0,0,1,7,8ZM17,18H7a1,1,0,0,1,0-2H17a1,1,0,0,1,0,2Zm0-4H7a1,1,0,0,1,0-2H17a1,1,0,0,1,0,2Z" fill="#9d9d9d" stroke="#707070" stroke-width="1"/>
  </g>
</svg>
