<svg xmlns="http://www.w3.org/2000/svg" width="16.171" height="17.423" viewBox="0 0 16.171 17.423">
  <g id="logout_4_" data-name="logout (4)" transform="translate(-17.6)">
    <g id="Group_23" data-name="Group 23" transform="translate(17.6 0)">
      <g id="Group_22" data-name="Group 22" transform="translate(0 0)">
        <path id="Path_13" data-name="Path 13" d="M132,133.389l.007-.007a.271.271,0,0,0,.028-.039s0-.007.007-.011.018-.028.025-.043a.012.012,0,0,1,0-.007c.007-.014.014-.028.021-.046s0,0,0-.007.011-.032.018-.05,0-.007,0-.007a.249.249,0,0,0,.011-.05.032.032,0,0,1,0-.018c0-.014,0-.028.007-.043a.516.516,0,0,0,0-.121.179.179,0,0,0-.007-.043.032.032,0,0,0,0-.018c0-.018-.007-.032-.011-.05s0-.007,0-.007a.279.279,0,0,0-.018-.05s0,0,0-.007-.014-.032-.021-.046a.012.012,0,0,0,0-.007.264.264,0,0,0-.025-.043s0-.007-.007-.011a.375.375,0,0,0-.028-.039l-.007-.007a.506.506,0,0,0-.043-.046l-3.517-3.514a.611.611,0,0,0-.864.864l2.475,2.475h-9.84a.61.61,0,1,0,0,1.22h9.844L127.6,136.07a.61.61,0,1,0,.861.864l3.5-3.5C131.973,133.417,131.987,133.4,132,133.389Z" transform="translate(-115.973 -124.292)" fill="#707070"/>
        <path id="Path_14" data-name="Path 14" d="M20.911,1.22h4.552a.61.61,0,1,0,0-1.22H20.911A3.316,3.316,0,0,0,17.6,3.311v10.8a3.316,3.316,0,0,0,3.311,3.311h4.477a.61.61,0,1,0,0-1.22H20.911a2.1,2.1,0,0,1-2.091-2.091V3.311A2.1,2.1,0,0,1,20.911,1.22Z" transform="translate(-17.6 0)" fill="#707070"/>
      </g>
    </g>
  </g>
</svg>
