<svg xmlns="http://www.w3.org/2000/svg" width="23.513" height="23.207" viewBox="0 0 23.513 23.207">
  <path id="home_7_" data-name="home (7)" d="M21.608,9.658l0,0L12.548.6A2.044,2.044,0,0,0,9.656.6L.6,9.652l-.009.009a2.043,2.043,0,0,0,1.36,3.483q.031,0,.063,0h.361v6.666a2.4,2.4,0,0,0,2.393,2.392H8.315a.651.651,0,0,0,.651-.651V16.329a1.093,1.093,0,0,1,1.092-1.092h2.09a1.093,1.093,0,0,1,1.092,1.092v5.226a.651.651,0,0,0,.651.651h3.544a2.4,2.4,0,0,0,2.393-2.392V13.147h.335a2.045,2.045,0,0,0,1.447-3.489Zm0,0" transform="translate(0.654 0.501)" fill="#9d9d9d" stroke="#707070" stroke-width="1"/>
</svg>
