<svg xmlns="http://www.w3.org/2000/svg" width="19.293" height="18.163" viewBox="0 0 19.293 18.163">
  <g id="content" transform="translate(0.4 -15.598)">
    <path id="Path_191" data-name="Path 191" d="M124.252,406v1.235l-2.88.96a.542.542,0,0,0,.343,1.028l3.167-1.056h1.992l3.167,1.056a.542.542,0,0,0,.343-1.028l-2.881-.96V406Z" transform="translate(-116.631 -375.914)" fill="#9d9d9d" stroke="#707070" stroke-width="0.8"/>
    <path id="Path_192" data-name="Path 192" d="M17.951,16H.542A.541.541,0,0,0,0,16.54V28.459A.541.541,0,0,0,.542,29H17.951a.541.541,0,0,0,.542-.542V16.54A.541.541,0,0,0,17.951,16ZM3.287,19.249a.541.541,0,0,1,.542-.542H8.163a.541.541,0,0,1,.542.542v4.334a.541.541,0,0,1-.542.542H3.829a.541.541,0,0,1-.542-.542Zm11.377,7.043H3.829a.542.542,0,1,1,0-1.084H14.664a.542.542,0,1,1,0,1.084Zm0-2.167H10.33a.542.542,0,1,1,0-1.084h4.334a.542.542,0,1,1,0,1.084Zm0-2.167H10.33a.542.542,0,1,1,0-1.084h4.334a.542.542,0,1,1,0,1.084Zm0-2.167H10.33a.542.542,0,0,1,0-1.084h4.334a.542.542,0,1,1,0,1.084Z" fill="#9d9d9d" stroke="#707070" stroke-width="0.8"/>
    <path id="Path_193" data-name="Path 193" d="M121,121h3.251v3.251H121Z" transform="translate(-116.63 -101.208)" fill="#9d9d9d" stroke="#707070" stroke-width="0.8"/>
  </g>
</svg>
