<svg xmlns="http://www.w3.org/2000/svg" width="18.378" height="21.854" viewBox="0 0 18.378 21.854">
  <g id="bell_1_" data-name="bell (1)" transform="translate(-1.5 0.5)">
    <path id="Path_189" data-name="Path 189" d="M18.839,14.7a5.82,5.82,0,0,1-2.067-4.453V7.82a6.087,6.087,0,0,0-5.213-6.013V.869a.869.869,0,1,0-1.738,0v.938A6.087,6.087,0,0,0,4.607,7.82v2.423A5.826,5.826,0,0,1,2.532,14.7a1.52,1.52,0,0,0,.989,2.675H17.858a1.521,1.521,0,0,0,.981-2.682Z" fill="#9d9d9d" stroke="#707070" stroke-width="1"/>
    <path id="Path_190" data-name="Path 190" d="M11.518,23.607A3.264,3.264,0,0,0,14.711,21H8.326A3.264,3.264,0,0,0,11.518,23.607Z" transform="translate(-0.829 -2.753)" fill="#9d9d9d" stroke="#707070" stroke-width="1"/>
  </g>
</svg>
