<svg xmlns="http://www.w3.org/2000/svg" width="19.8" height="22.123" viewBox="0 0 19.8 22.123">
  <g id="Group_131" data-name="Group 131" transform="translate(0.5 0.5)">
    <g id="Group_130" data-name="Group 130" transform="translate(0)">
      <path id="Path_187" data-name="Path 187" d="M40.636,281.091a4.594,4.594,0,0,1-3.718,1.9H34.775a1.712,1.712,0,0,1-1.609-1.127,5.432,5.432,0,0,1-.865-.342,5.827,5.827,0,0,1-1.616-1.2,6.9,6.9,0,0,0-5.411,6.737v.431a1.073,1.073,0,0,0,1.073,1.073H43a1.073,1.073,0,0,0,1.073-1.073v-.431A6.9,6.9,0,0,0,40.636,281.091Z" transform="translate(-25.274 -267.442)" fill="#9d9d9d" stroke="#707070" stroke-width="1"/>
      <path id="Path_188" data-name="Path 188" d="M92.83,10.669a1.222,1.222,0,0,0,1.071-.633l.017.045,0,.013a4.77,4.77,0,0,0,2.69,2.832,1.709,1.709,0,0,1,1.449-.8H100.2a1.2,1.2,0,0,0,.587-.158,2.421,2.421,0,0,0,.692-.8,6.177,6.177,0,0,0,.536-1.132,1.228,1.228,0,0,0,.338.389v.525A2.155,2.155,0,0,1,100.2,13.1H98.061a.733.733,0,1,0,0,1.467H100.2a3.623,3.623,0,0,0,3.619-3.619v-.525a1.22,1.22,0,0,0,.489-.978V6.388A1.22,1.22,0,0,0,103.8,5.4a5.863,5.863,0,0,0-11.689,0,1.22,1.22,0,0,0-.507.991V9.447A1.223,1.223,0,0,0,92.83,10.669Zm5.13-9.2a4.4,4.4,0,0,1,4.375,3.96,1.227,1.227,0,0,0-.343.425,4.184,4.184,0,0,0-8.06-.007l0,.007a1.227,1.227,0,0,0-.343-.425A4.4,4.4,0,0,1,97.96,1.467Z" transform="translate(-88.56)" fill="#9d9d9d" stroke="#707070" stroke-width="1"/>
    </g>
  </g>
</svg>
