<svg xmlns="http://www.w3.org/2000/svg" width="25" height="25" viewBox="0 0 25 25">
  <g id="patient" transform="translate(0.5 0.5)">
    <path id="Path_15" data-name="Path 15" d="M14.5,24a1,1,0,0,1-.832-.445L11.965,21H10a1,1,0,0,1,0-2h2.5a1,1,0,0,1,.832.445l1.044,1.566L16.6,16.552A1,1,0,0,1,17.461,16a.986.986,0,0,1,.9.484L21.066,21H23a1,1,0,0,1,0,2H20.5a1,1,0,0,1-.857-.485L17.58,19.077,15.4,23.448a1,1,0,0,1-.833.551Z" fill="#9d9d9d" stroke="#707070" stroke-width="1"/>
    <circle id="Ellipse_1" data-name="Ellipse 1" cx="5" cy="5" r="5" transform="translate(4)" fill="#9d9d9d" stroke="#707070" stroke-width="1"/>
    <path id="Path_16" data-name="Path 16" d="M7,20a3,3,0,0,1,3-3h2.5a3,3,0,0,1,1.458.377l.859-1.719a2.983,2.983,0,0,1,2.214-1.594A4.984,4.984,0,0,0,13,12H5a5,5,0,0,0-5,5v3.25A.75.75,0,0,0,.75,21H7.184A2.966,2.966,0,0,1,7,20Z" fill="#9d9d9d" stroke="#707070" stroke-width="1"/>
  </g>
</svg>
