<svg xmlns="http://www.w3.org/2000/svg" width="23.207" height="23.207" viewBox="0 0 23.207 23.207">
  <g id="doctor_1_" data-name="doctor (1)" transform="translate(0.5 0.5)">
    <path id="Path_155" data-name="Path 155" d="M113.682,113.045a4.8,4.8,0,0,0,9.457,0h.1a1.406,1.406,0,0,0,0-2.813h-.034v-.521a6.959,6.959,0,0,1-3.655-2.128,11.775,11.775,0,0,1-5.94,2.633l-.163.022a1.406,1.406,0,0,0,.129,2.807Z" transform="translate(-107.308 -102.917)" fill="#9d9d9d" stroke="#707070" stroke-width="1"/>
    <path id="Path_156" data-name="Path 156" d="M145.384,5.978c3.909-.728,5.476-2.684,5.492-2.7l.6-.765.481.843a5.23,5.23,0,0,0,3.025,2.1V4.8a4.8,4.8,0,0,0-9.6,0Z" transform="translate(-139.078)" fill="#9d9d9d" stroke="#707070" stroke-width="1"/>
    <path id="Path_157" data-name="Path 157" d="M374.028,422h-.2a1.074,1.074,0,0,0-1.073,1.073V424.6H375.1v-1.529A1.074,1.074,0,0,0,374.028,422Z" transform="translate(-356.585 -403.697)" fill="#9d9d9d" stroke="#707070" stroke-width="1"/>
    <circle id="Ellipse_14" data-name="Ellipse 14" cx="0.867" cy="0.867" r="0.867" transform="translate(3.998 19.171)" fill="#9d9d9d" stroke="#707070" stroke-width="1"/>
    <path id="Path_158" data-name="Path 158" d="M223.128,350.683a6.085,6.085,0,0,1-3.122,0l1.561,2.189Z" transform="translate(-210.464 -335.473)" fill="#9d9d9d" stroke="#707070" stroke-width="1"/>
    <path id="Path_159" data-name="Path 159" d="M2.7,331.352a2.172,2.172,0,0,1,1.518-2.069v-3.855l-1.775.833A4.256,4.256,0,0,0,0,330.1v3.42H4.865A2.171,2.171,0,0,1,2.7,331.352Z" transform="translate(0 -311.314)" fill="#9d9d9d" stroke="#707070" stroke-width="1"/>
    <path id="Path_160" data-name="Path 160" d="M416.6,326.261l-1.775-.833v2.952a2.378,2.378,0,0,1,1.825,2.309v2.831h2.39V330.1A4.256,4.256,0,0,0,416.6,326.261Z" transform="translate(-396.835 -311.313)" fill="#9d9d9d" stroke="#707070" stroke-width="1"/>
    <path id="Path_161" data-name="Path 161" d="M124,306.413v-3.563l-.822-.386c-.164.206-4.766,6.522-4.766,6.522s-4.6-6.316-4.766-6.522l-.822.386v4.465a2.169,2.169,0,0,1-.651,4.237h10v-2.831A2.378,2.378,0,0,1,124,306.413Z" transform="translate(-107.308 -289.346)" fill="#9d9d9d" stroke="#707070" stroke-width="1"/>
  </g>
</svg>
