<svg xmlns="http://www.w3.org/2000/svg" width="27.604" height="27.604" viewBox="0 0 27.604 27.604">
  <g id="request" transform="translate(0.5 0.5)">
    <path id="Path_162" data-name="Path 162" d="M206.1,0H196.085A3.282,3.282,0,0,0,192.8,3.284V18.311a.78.78,0,0,0,1.247.624l3.132-2.349H206.1a3.282,3.282,0,0,0,3.284-3.284V3.284A3.282,3.282,0,0,0,206.1,0Zm-5.009,12.829a.779.779,0,1,1,.779-.779A.78.78,0,0,1,201.094,12.829Zm.779-3.447v.163a.779.779,0,1,1-1.559,0V8.71a.779.779,0,0,1,.779-.779,1.308,1.308,0,1,0-1.308-1.309.779.779,0,1,1-1.559,0h0a2.867,2.867,0,1,1,3.646,2.76Zm0,0" transform="translate(-182.783 0)" fill="#9d9d9d" stroke="#707070" stroke-width="1"/>
    <path id="Path_163" data-name="Path 163" d="M31.794,244.672a3.684,3.684,0,1,1-3.684-3.685A3.684,3.684,0,0,1,31.794,244.672Zm0,0" transform="translate(-23.156 -228.466)" fill="#9d9d9d" stroke="#707070" stroke-width="1"/>
    <path id="Path_164" data-name="Path 164" d="M4.954,382.8A4.954,4.954,0,0,0,0,387.759v.98a.779.779,0,0,0,.779.779H9.128a.779.779,0,0,0,.779-.779v-.98A4.954,4.954,0,0,0,4.954,382.8Zm0,0" transform="translate(0 -362.914)" fill="#9d9d9d" stroke="#707070" stroke-width="1"/>
  </g>
</svg>
