<svg xmlns="http://www.w3.org/2000/svg" width="24" height="30.416" viewBox="0 0 24 30.416">
  <g id="advertisement" transform="translate(0)">
    <path id="Path_165" data-name="Path 165" d="M31.308,132.119H13.958L10,135.452v-18.5a1.5,1.5,0,0,1,1.5-1.5h19.8a1.5,1.5,0,0,1,1.5,1.5v13.658a1.5,1.5,0,0,1-1.5,1.5Zm0,0" transform="translate(-9.406 -108.594)" fill="#9d9d9d"/>
    <path id="Path_166" data-name="Path 166" d="M87.174,105.623a.594.594,0,1,0,.42-.174A.6.6,0,0,0,87.174,105.623Zm0,0" transform="translate(-81.832 -99.185)" fill="#666"/>
    <path id="Path_167" data-name="Path 167" d="M21.9,105.452H8.139a.594.594,0,0,0,0,1.188H21.9a.911.911,0,0,1,.91.91v12.192H18.864a.594.594,0,1,0,0,1.188h3.948v.278a.911.911,0,0,1-.91.91H4.552a.594.594,0,0,0-.383.14l-2.981,2.511V107.55a.911.911,0,0,1,.91-.91H3.386a.594.594,0,1,0,0-1.188H2.1a2.1,2.1,0,0,0-2.1,2.1v18.5a.594.594,0,0,0,.977.454l3.792-3.194H21.9a2.1,2.1,0,0,0,2.1-2.1V107.55a2.1,2.1,0,0,0-2.1-2.1Zm0,0" transform="translate(0 -99.188)" fill="#666"/>
    <path id="Path_168" data-name="Path 168" d="M192.594,4.157a.594.594,0,0,0,.594-.594V.594a.594.594,0,1,0-1.188,0V3.562A.594.594,0,0,0,192.594,4.157Zm0,0" transform="translate(-180.594)" fill="#666"/>
    <path id="Path_169" data-name="Path 169" d="M267.965,22.331a.592.592,0,0,0,.42-.174l2.077-2.077a.594.594,0,1,0-.84-.84l-2.077,2.077a.594.594,0,0,0,.42,1.014Zm0,0" transform="translate(-251.488 -17.934)" fill="#666"/>
    <path id="Path_170" data-name="Path 170" d="M83.919,22.091a.594.594,0,1,0,.84-.84l-2.077-2.077a.594.594,0,0,0-.84.84Zm0,0" transform="translate(-76.817 -17.871)" fill="#666"/>
    <path id="Path_171" data-name="Path 171" d="M192.594,442.031a.594.594,0,0,0-.594.594v2.968a.594.594,0,1,0,1.188,0v-2.968A.594.594,0,0,0,192.594,442.031Zm0,0" transform="translate(-180.594 -415.772)" fill="#666"/>
    <path id="Path_172" data-name="Path 172" d="M268.385,438.146a.594.594,0,0,0-.84.84l2.077,2.077a.594.594,0,0,0,.84-.84Zm0,0" transform="translate(-251.487 -411.954)" fill="#666"/>
    <path id="Path_173" data-name="Path 173" d="M83.919,438.213l-2.077,2.077a.594.594,0,1,0,.84.84l2.077-2.077a.594.594,0,1,0-.84-.84Zm0,0" transform="translate(-76.817 -412.017)" fill="#666"/>
    <path id="Path_174" data-name="Path 174" d="M219.405,204.952a2.826,2.826,0,0,0-2.823-2.823h-1.289a.594.594,0,0,0-.594.594v5.228a.594.594,0,0,0,.594.594h1.289a2.826,2.826,0,0,0,2.823-2.823Zm-1.188.769a1.637,1.637,0,0,1-1.635,1.635h-.695v-4.04h.695a1.637,1.637,0,0,1,1.635,1.635Zm0,0" transform="translate(-201.945 -190.121)" fill="#666"/>
    <path id="Path_175" data-name="Path 175" d="M110.614,206.268l-.5,1.493a.594.594,0,1,0,1.126.379l.371-1.1h1.65l.371,1.1a.594.594,0,1,0,1.126-.379L113,202.533a.594.594,0,0,0-1.126,0l-1.256,3.733Zm1.82-1.682.425,1.264h-.851Zm0,0" transform="translate(-103.541 -190.121)" fill="#666"/>
    <path id="Path_176" data-name="Path 176" d="M268.213,346.174a.594.594,0,1,0,.42-.174A.6.6,0,0,0,268.213,346.174Zm0,0" transform="translate(-252.116 -325.446)" fill="#666"/>
  </g>
</svg>
