<svg xmlns="http://www.w3.org/2000/svg" width="14.616" height="23.405" viewBox="0 0 14.616 23.405">
  <path id="Path_5082" data-name="Path 5082" d="M213.794,0h-12.3a.656.656,0,0,0-.656.656V22.4h12.96a.656.656,0,0,0,.656-.656V.656A.656.656,0,0,0,213.794,0Zm-7.483,10v8.554a.656.656,0,0,1-1.313,0V10a2.056,2.056,0,0,1,0-3.9V3.851a.656.656,0,0,1,1.313,0V6.1a2.056,2.056,0,0,1,0,3.9Zm4.2,6.3v2.252a.656.656,0,0,1-1.313,0V16.3a2.056,2.056,0,0,1,0-3.9V3.851a.656.656,0,0,1,1.313,0V12.4a2.056,2.056,0,0,1,0,3.9Z" transform="translate(-200.334 0.5)" fill="#9d9d9d" stroke="#707070" stroke-width="1"/>
</svg>
