<svg xmlns="http://www.w3.org/2000/svg" width="20.518" height="21.733" viewBox="0 0 20.518 21.733">
  <g id="admin-with-cogwheels" transform="translate(-13.366 0.4)">
    <path id="Path_180" data-name="Path 180" d="M232.774,93.2c-.027-.5-.537-.414-1.035-.414A4.408,4.408,0,0,1,232.774,93.2Z" transform="translate(-208.358 -88.688)" fill="#9d9d9d" stroke="#707070" stroke-width="0.8"/>
    <path id="Path_181" data-name="Path 181" d="M89.775,73.928A2.061,2.061,0,0,0,88.5,77.605a4.462,4.462,0,0,1,2.95-2.815A2.062,2.062,0,0,0,89.775,73.928Z" transform="translate(-70.682 -70.667)" fill="#9d9d9d" stroke="#707070" stroke-width="0.8"/>
    <path id="Path_182" data-name="Path 182" d="M15.1,6.555a4.288,4.288,0,0,0,.3.725l-.635.635a.437.437,0,0,0,0,.618l1.119,1.12a.439.439,0,0,0,.619,0l.634-.635c.1.05.2.081.3.125,0-.007,0-.015,0-.022A6.512,6.512,0,0,1,17.6,7.652a2.761,2.761,0,1,1,3.891-3.677,4.815,4.815,0,0,1,1.56.046,4.168,4.168,0,0,0-.27-.648l.635-.636a.435.435,0,0,0,0-.618L22.3,1a.436.436,0,0,0-.617,0l-.637.636a4.092,4.092,0,0,0-.725-.3v-.9A.436.436,0,0,0,19.884,0H18.3a.438.438,0,0,0-.437.437v.9a4.135,4.135,0,0,0-.725.3L16.5,1a.437.437,0,0,0-.618,0l-1.12,1.119a.439.439,0,0,0,0,.618l.635.635a4.181,4.181,0,0,0-.3.725h-.9a.437.437,0,0,0-.437.437V6.118a.437.437,0,0,0,.437.437Z" transform="translate(0)" fill="#9d9d9d" stroke="#707070" stroke-width="0.8"/>
    <path id="Path_183" data-name="Path 183" d="M284.91,249.012a2.249,2.249,0,1,0-2.267-3.882,8.131,8.131,0,0,1-.962,2.3A6.762,6.762,0,0,1,284.91,249.012Z" transform="translate(-256.098 -233.986)" fill="#9d9d9d" stroke="#707070" stroke-width="0.8"/>
    <path id="Path_184" data-name="Path 184" d="M311.27,170.545a.472.472,0,0,0-.471-.472h-.969a4.475,4.475,0,0,0-.326-.783l.686-.686a.471.471,0,0,0,0-.667l-1.207-1.207a.47.47,0,0,0-.666,0l-.687.686a4.4,4.4,0,0,0-.783-.325v-.969a.471.471,0,0,0-.471-.471h-1.708a.465.465,0,0,0-.3.114,6.421,6.421,0,0,1,.223,1.7,8.176,8.176,0,0,1-.086,1.165,2.92,2.92,0,0,1,1.014-.191,2.954,2.954,0,0,1,1.6,5.442,6.746,6.746,0,0,1,1.375,2.293.483.483,0,0,0,.156.03.471.471,0,0,0,.334-.138l1.208-1.207a.474.474,0,0,0,0-.667l-.687-.686a4.457,4.457,0,0,0,.326-.783h.969a.473.473,0,0,0,.472-.472Z" transform="translate(-277.787 -158.345)" fill="#9d9d9d" stroke="#707070" stroke-width="0.8"/>
    <path id="Path_185" data-name="Path 185" d="M35.526,330.726a5.706,5.706,0,0,0-4.9-3.838,3.51,3.51,0,0,1-5.445,0,5.706,5.706,0,0,0-4.9,3.839l-.4,1.191a1.123,1.123,0,0,0,1.063,1.484H34.868a1.122,1.122,0,0,0,1.063-1.484Z" transform="translate(-5.781 -312.469)" fill="#9d9d9d" stroke="#707070" stroke-width="0.8"/>
    <path id="Path_186" data-name="Path 186" d="M120.842,116.652c0,2.673,1.627,5.54,3.632,5.54s3.633-2.868,3.633-5.54C128.108,111.112,120.842,111.1,120.842,116.652Z" transform="translate(-102.353 -107.531)" fill="#9d9d9d" stroke="#707070" stroke-width="0.8"/>
  </g>
</svg>
