<?xml version="1.0"?>
<svg xmlns="http://www.w3.org/2000/svg" xmlns:xlink="http://www.w3.org/1999/xlink" xmlns:svgjs="http://svgjs.com/svgjs" version="1.1" width="512" height="512" x="0" y="0" viewBox="0 0 512 512" style="enable-background:new 0 0 512 512" xml:space="preserve"><g><path xmlns="http://www.w3.org/2000/svg" d="m441.91 361.431c-16.364 0-29.677-13.313-29.677-29.677v-104.37c0-67.979-43.646-125.947-104.384-147.378v-28.156c.001-28.59-23.259-51.85-51.849-51.85s-51.849 23.26-51.849 51.85v28.156c-60.737 21.431-104.384 79.398-104.384 147.378v104.37c0 16.364-13.313 29.677-29.677 29.677-8.284 0-15 6.716-15 15v57.967c0 8.284 6.716 15 15 15h128.958v5.65c0 31.403 25.549 56.952 56.952 56.952s56.952-25.549 56.952-56.952v-5.65h128.958c8.284 0 15-6.716 15-15v-57.967c0-8.285-6.716-15-15-15zm-207.759-309.581c0-12.048 9.801-21.85 21.849-21.85s21.85 9.802 21.85 21.85v20.836c-7.143-1.004-14.435-1.535-21.85-1.535s-14.707.531-21.849 1.535zm48.801 403.198c0 14.861-12.091 26.952-26.952 26.952s-26.952-12.091-26.952-26.952v-5.65h53.904zm143.958-35.651h-341.82v-29.876c25.668-6.67 44.677-30.041 44.677-57.768v-104.37c0-69.605 56.628-126.233 126.233-126.233s126.233 56.628 126.233 126.233v104.37c0 27.727 19.009 51.098 44.677 57.768z" fill="#000000" data-original="#000000" style=""/></g></svg>
