<?xml version="1.0"?>
<svg xmlns="http://www.w3.org/2000/svg" xmlns:xlink="http://www.w3.org/1999/xlink" xmlns:svgjs="http://svgjs.com/svgjs" version="1.1" width="512" height="512" x="0" y="0" viewBox="0 0 512 512" style="enable-background:new 0 0 512 512" xml:space="preserve"><g><g xmlns="http://www.w3.org/2000/svg"><path d="m275.521 64.823c5.867-5.789 15.401-5.787 21.248.176l25.489 26.001h40.74c-7.744-51.417-52.27-91-105.769-91-58.309 0-105.865 46.899-106.941 104.957 13.238-1.906 73.539 10.88 125.233-40.134z" fill="#ffffff" data-original="#000000" style=""/><path d="m257.262 239.913c58.845 0 107-47.815 107-107l-.031-11.913h-48.274c-4.03 0-7.89-1.622-10.711-4.499l-19.825-20.223c-59.042 48.86-121.524 36.909-135.133 38.678 1.074 58.057 48.645 104.957 106.974 104.957z" fill="#ffffff" data-original="#000000" style=""/><path d="m365.579 216.709c-17.309 22.32-41.353 39.164-69.058 47.464l-215.41 187.049h148.206z" fill="#ffffff" data-original="#000000" style=""/><path d="m338.833 426.479c0-13.644-11.107-24.743-24.759-24.743h-21.306l-28.754 49.486h50.06c13.652 0 24.759-11.099 24.759-24.743z" fill="#ffffff" data-original="#000000" style=""/><path d="m144.439 210.613h-11.424c-26.9 0-49.619 19.255-54.021 45.784-26.289 165.6-29.664 162.513-26.253 179.728l192.066-166.778c-41.904-3.773-77.928-26.31-100.368-58.734z" fill="#ffffff" data-original="#000000" style=""/><path d="m460.259 495.463-24.259-235.52c-2.094-21.067-15.766-38.252-34.378-45.55l-91.423 157.343h3.875c30.194 0 54.759 24.558 54.759 54.743 0 30.186-24.565 54.743-54.759 54.743h-198.512l-1.402 14.095c-.878 8.825 6.06 16.48 14.917 16.485l316.252.198c11.784-2.553 15.75-8.572 14.93-16.537z" fill="#ffffff" data-original="#000000" style=""/></g></g></svg>
