<svg xmlns="http://www.w3.org/2000/svg" width="17.591" height="17.59" viewBox="0 0 17.591 17.59">
  <path id="Icon_ionic-ios-call" data-name="Icon ionic-ios-call" d="M21.573,18.276a14.775,14.775,0,0,0-3.087-2.065c-.925-.444-1.264-.435-1.919.037-.545.394-.9.76-1.525.623A9.1,9.1,0,0,1,11.979,14.6a9.032,9.032,0,0,1-2.267-3.064c-.133-.632.234-.98.623-1.525.472-.655.485-.994.037-1.919A14.484,14.484,0,0,0,8.307,5.009c-.673-.673-.824-.527-1.2-.394A6.8,6.8,0,0,0,6.017,5.2,3.3,3.3,0,0,0,4.7,6.585c-.261.563-.563,1.612.975,4.35a24.275,24.275,0,0,0,4.268,5.692h0l0,0,0,0h0A24.37,24.37,0,0,0,15.647,20.9c2.739,1.539,3.787,1.236,4.35.975a3.245,3.245,0,0,0,1.388-1.314,6.8,6.8,0,0,0,.582-1.094C22.1,19.1,22.251,18.949,21.573,18.276Z" transform="translate(-4.49 -4.502)" fill="#42b25c"/>
</svg>
