<svg xmlns="http://www.w3.org/2000/svg" width="21.547" height="22" viewBox="0 0 21.547 22">
  <g id="settings_9_" data-name="settings (9)" transform="translate(-6.157 0.5)">
    <g id="Group_17" data-name="Group 17" transform="translate(6.71)">
      <path id="Path_8" data-name="Path 8" d="M26.806,12.8l-1.93-1.509a7.6,7.6,0,0,0,.045-.793,7.371,7.371,0,0,0-.045-.793L26.808,8.2a.946.946,0,0,0,.228-1.206L25.029,3.517A.93.93,0,0,0,23.868,3.1l-2.278.914a7.809,7.809,0,0,0-1.368-.794L19.876.805A.929.929,0,0,0,18.948,0H14.923A.927.927,0,0,0,14,.8L13.65,3.223a8.05,8.05,0,0,0-1.365.794L10,3.1a.949.949,0,0,0-1.152.41L6.839,6.987A.941.941,0,0,0,7.067,8.2L9,9.708a6.923,6.923,0,0,0,0,1.585L7.065,12.8a.947.947,0,0,0-.228,1.206l2.007,3.473a.929.929,0,0,0,1.161.417l2.278-.914a7.878,7.878,0,0,0,1.367.794L14,20.193a.929.929,0,0,0,.927.807h4.025a.928.928,0,0,0,.927-.8l.347-2.424a8.088,8.088,0,0,0,1.365-.795l2.284.917a.94.94,0,0,0,.343.065.924.924,0,0,0,.809-.474L27.04,14A.945.945,0,0,0,26.806,12.8ZM16.936,14a3.5,3.5,0,1,1,3.5-3.5A3.5,3.5,0,0,1,16.936,14Z" transform="translate(-6.71)" fill="#9d9d9d" stroke="#707070" stroke-width="1"/>
    </g>
  </g>
</svg>
