<svg xmlns="http://www.w3.org/2000/svg" width="19.112" height="19.108" viewBox="0 0 19.112 19.108">
  <g id="statistics_2_" data-name="statistics (2)" transform="translate(0.5 0.45)">
    <g id="Group_11" data-name="Group 11" transform="translate(0 7.162)">
      <g id="Group_10" data-name="Group 10">
        <path id="Path_4" data-name="Path 4" d="M4.528,187.75H.648A.65.65,0,0,0,0,188.4v9.7a.648.648,0,0,0,.648.648h3.88a.648.648,0,0,0,.648-.648v-9.7A.648.648,0,0,0,4.528,187.75Z" transform="translate(0 -187.75)" fill="#9d9d9d" stroke="#707070" stroke-width="1"/>
      </g>
    </g>
    <g id="Group_13" data-name="Group 13" transform="translate(6.468 0.05)">
      <g id="Group_12" data-name="Group 12" transform="translate(0 0)">
        <path id="Path_5" data-name="Path 5" d="M175.228.05h-3.88a.647.647,0,0,0-.648.644V17.51a.648.648,0,0,0,.648.648h3.88a.648.648,0,0,0,.648-.648V.7A.648.648,0,0,0,175.228.05Z" transform="translate(-170.7 -0.05)" fill="#9d9d9d" stroke="#707070" stroke-width="1"/>
      </g>
    </g>
    <g id="Group_15" data-name="Group 15" transform="translate(12.936 5.222)">
      <g id="Group_14" data-name="Group 14">
        <path id="Path_6" data-name="Path 6" d="M345.928,136.55h-3.88a.645.645,0,0,0-.648.648v11.64a.648.648,0,0,0,.648.648h3.88a.648.648,0,0,0,.648-.648V137.2A.648.648,0,0,0,345.928,136.55Z" transform="translate(-341.4 -136.55)" fill="#9d9d9d" stroke="#707070" stroke-width="1"/>
      </g>
    </g>
  </g>
</svg>
