<svg xmlns="http://www.w3.org/2000/svg" width="19.124" height="22.723" viewBox="0 0 19.124 22.723">
  <g id="user_14_" data-name="user (14)" transform="translate(0.5 0.5)">
    <path id="Path_9" data-name="Path 9" d="M92.264,10.464a5.062,5.062,0,0,0,3.7-1.533,5.062,5.062,0,0,0,1.533-3.7,5.063,5.063,0,0,0-1.533-3.7,5.231,5.231,0,0,0-7.4,0,5.063,5.063,0,0,0-1.533,3.7,5.062,5.062,0,0,0,1.533,3.7,5.064,5.064,0,0,0,3.7,1.533Zm0,0" transform="translate(-83.339 0)" fill="#9d9d9d" stroke="#707070" stroke-width="1"/>
    <path id="Path_10" data-name="Path 10" d="M18.08,253.527a12.924,12.924,0,0,0-.176-1.373,10.815,10.815,0,0,0-.338-1.38A6.816,6.816,0,0,0,17,249.487a4.857,4.857,0,0,0-.856-1.115,3.772,3.772,0,0,0-1.229-.772,4.247,4.247,0,0,0-1.569-.284,1.592,1.592,0,0,0-.85.361c-.255.166-.553.358-.886.571a5.077,5.077,0,0,1-1.146.505,4.451,4.451,0,0,1-2.8,0,5.066,5.066,0,0,1-1.145-.5c-.33-.211-.628-.4-.887-.571a1.59,1.59,0,0,0-.85-.361,4.241,4.241,0,0,0-1.569.284,3.768,3.768,0,0,0-1.229.772,4.857,4.857,0,0,0-.855,1.115,6.829,6.829,0,0,0-.567,1.287,10.841,10.841,0,0,0-.337,1.38,12.876,12.876,0,0,0-.176,1.373c-.029.416-.043.847-.043,1.283a3.607,3.607,0,0,0,1.071,2.729,3.857,3.857,0,0,0,2.761,1.007h10.46a3.856,3.856,0,0,0,2.76-1.007,3.606,3.606,0,0,0,1.071-2.729c0-.438-.015-.869-.044-1.283Zm0,0" transform="translate(0 -236.823)" fill="#9d9d9d" stroke="#707070" stroke-width="1"/>
  </g>
</svg>
